<svg width="135" height="50" viewBox="0 0 135 50" fill="none" xmlns="http://www.w3.org/2000/svg">
<rect x="0.254464" y="0.254464" width="134.491" height="49.4911" rx="6.53125" fill="white" stroke="black" stroke-width="0.508929"/>
<path d="M27.6217 15.1353C26.0203 15.2037 24.0699 15.3269 21.7706 15.5048L21.9553 24.0454L21.4831 37L16.9049 37.3695L16.6585 15.6896C15.4678 15.717 14.366 15.7581 13.3532 15.8128C12.354 15.8675 11.5054 15.8949 10.8074 15.8949L11.177 11.4399C15.9126 10.824 21.2162 10.516 27.0879 10.516L27.6217 15.1353ZM32.241 36.0351C31.4882 35.7887 31.0502 35.2207 30.927 34.3311C30.6533 32.4423 30.5164 30.7177 30.5164 29.1575C30.5164 27.5835 30.5301 26.4201 30.5575 25.6673C30.5985 24.9009 30.6533 24.1618 30.7217 23.45C30.9681 20.48 31.3034 18.7418 31.7277 18.2354C31.9467 17.9616 32.3026 17.7563 32.7953 17.6195C33.3017 17.4689 33.9724 17.3184 34.8072 17.1678C35.6558 17.0036 36.5455 16.853 37.4762 16.7161C38.4206 16.5656 39.3444 16.4287 40.2478 16.3055C41.1648 16.1823 41.9449 16.0729 42.5882 15.977L43.3068 20.5963L41.7259 20.7606C38.797 21.0617 36.9287 21.3149 36.1212 21.5202C35.9022 22.3688 35.7516 23.5595 35.6695 25.0925C35.5874 26.6254 35.5463 27.7477 35.5463 28.4594C35.5463 30.225 35.6148 31.5458 35.7516 32.4218L43.5942 33.8794L42.3829 38.2934C41.2606 38.1155 40.2067 37.9239 39.2212 37.7186L36.7371 37.2053C34.4925 36.7126 32.9937 36.3225 32.241 36.0351ZM58.5607 28.172L55.0295 11.563L60.3879 10.3107L63.3853 27.8435L63.8165 33.3046L64.7403 33.3456L68.3742 21.5202L66.8139 13.6571L72.1312 12.7333L74.6975 24.7229L76.1346 33.2224L77.2432 33.1403C77.3801 32.2644 77.5307 31.2242 77.6949 30.0197C78.2013 26.4064 78.5572 23.7785 78.7625 22.1361L79.3168 17.5989C79.6863 14.4373 79.9327 12.0216 80.0559 10.3518L85.7633 11.1935C85.7633 11.1935 85.5785 12.3569 85.209 14.6836C84.4014 20.0899 83.5392 24.5587 82.6222 28.0899L80.3228 37L73.0551 37.3285L70.7967 28.3362H70.263L67.902 37L60.429 37.3285L58.5607 28.172ZM89.1918 23.3269C89.1918 21.4928 89.3834 20.4321 89.7667 20.1447C90.1499 19.8573 90.581 19.5698 91.0601 19.2824C91.5391 18.9813 92.0661 18.687 92.6409 18.3996C93.2158 18.1122 93.8111 17.8385 94.427 17.5784C95.0566 17.3184 95.6725 17.0857 96.2748 16.8804C97.5613 16.4424 98.5194 16.2234 99.149 16.2234C99.7923 16.2234 100.312 16.2576 100.709 16.3261C101.106 16.3808 101.469 16.4766 101.797 16.6135C102.55 16.9283 102.974 17.3868 103.07 17.989C103.522 20.8496 103.748 24.2576 103.748 28.2131V29.4243L93.9138 29.5475V32.2165C94.9814 32.4765 96.2542 32.716 97.7324 32.935L101.264 33.5099C102.167 33.6467 103.091 33.8041 104.035 33.9821L102.824 38.4782C99.06 37.8896 95.0635 36.9384 90.8343 35.6245C89.8625 35.3097 89.3629 34.7417 89.3355 33.9205L89.1918 23.3269ZM99.1285 25.0103C99.1285 23.7238 98.9984 22.3688 98.7384 20.9454C98.1909 20.9454 97.7529 20.9727 97.4245 21.0275C97.096 21.0822 96.7675 21.1575 96.439 21.2533C96.1105 21.3491 95.7752 21.4586 95.433 21.5818C94.6255 21.8692 94.0917 22.1156 93.8317 22.3209V26.0163L99.1285 25.4415V25.0103ZM109.209 7.70336L114.177 6.75897L114.259 21.5613L113.787 33.1403C113.924 33.154 114.061 33.1608 114.198 33.1608H114.608C116.073 33.1608 117.284 32.9966 118.242 32.6681C119.063 29.6707 119.474 26.6254 119.474 23.5322C119.474 22.5741 119.433 21.8213 119.351 21.2738C119.091 21.1917 118.755 21.1096 118.345 21.0275L117.154 20.8222L115.696 20.5963L116.743 16.0181C119.494 16.4561 121.315 16.8188 122.204 17.1062C123.108 17.3936 123.669 17.6947 123.888 18.0095C124.107 18.3106 124.251 18.687 124.319 19.1387C124.429 19.8778 124.483 20.8427 124.483 22.0335C124.483 25.7152 124.299 28.4868 123.929 30.3482C123.559 32.1959 123.231 33.5646 122.944 34.4543C122.656 35.3439 122.437 35.9051 122.287 36.1377C121.985 36.6441 120.459 37.0411 117.708 37.3285C116.353 37.479 115.135 37.5543 114.054 37.5543C112.151 37.5543 110.557 37.5064 109.27 37.4106L109.209 7.70336Z" fill="black"/>
</svg>
